<?xml version="1.0" encoding="UTF-8"?>
<svg id="Layer_2" xmlns="http://www.w3.org/2000/svg" viewBox="0 0 373 500">
  <defs>
    <style>.cls-1{fill:#CB0101;}</style>
  </defs>
  <path class="cls-1" d="M135.98,393.59c0,.32,0,.63,.02,.92,.16,1.42,.25,2.96,.28,4.58,.96,9.39,4.54,17.21,8.36,18.21,.33,.09,.64,.14,.96,.14,1.96,.02,3.89-1.86,5.31-5.23,1.41-3.35,2.29-8.09,2.29-13.48h0c0-2.53-.2-4.61-.55-6.36-5.8-.8-11.31-1.75-16.48-2.79-.13,1.16-.2,2.47-.2,4.01ZM28.39,200.58c6.94-11.5,11.93-24.32,15.34-37.52-2.16-2.76-3.67-7.06-3.99-11.98-.03-.61-.05-1.2-.05-1.79,.02-7.69,3.09-14.02,7.74-14.39,.1,0,.2,0,.32,0,2.08,0,3.99,1.28,5.52,3.34l.08,.21c.07,.86,.15,1.73,.2,2.59,.14,2.34,.2,4.67,.2,6.97,0,5.65-.4,11.18-1.13,16.63-3.6,26.85-15.18,51.32-25.98,75.64-3.25,7.3-6.42,14.59-9.26,21.85-.88,4.12-1.39,8.34-1.39,12.71,0,1.26,.04,2.53,.13,3.79,.69,5.11,2.23,9.94,4.83,14.23,2.03,3.35,4.73,6.34,8.17,8.87,.96,.71,1.95,1.39,3.02,2.01,6.52,3.79,13.92,4.42,21.48,4.42,1.81,0,3.63-.04,5.45-.07,1.92-.04,3.83-.08,5.73-.08,4.61,.01,49.17,.8,56.84,3.88,.67,.28,1.11,.93,1.11,1.65,0,.08-.01,.14-.02,.22-.09,.78-.68,1.42-1.45,1.56h-.03s-.02,.01-.04,.01c-.03,0-.07,.02-.13,.02-.11,.02-.27,.05-.49,.09-.44,.08-1.08,.2-1.91,.37-1.67,.34-4.13,.88-7.26,1.65-6.19,1.52-15.01,3.98-25.66,7.69,1.27,4.85,1.57,8.49,1.57,11.48,0,2.58-.22,4.67-.22,6.61,0,2.38,.31,4.54,1.74,7.26,.23-.57,.46-1.13,.71-1.67,2.41-5.16,5.94-8.92,10.59-8.99,4.64,.07,8.18,3.83,10.58,8.99,.57,1.22,1.08,2.54,1.53,3.95,2.41-4.94,5.87-8.51,10.4-8.57,4.64,.06,8.17,3.83,10.58,8.98,.59,1.27,1.11,2.64,1.58,4.1,2.42-5.13,5.94-8.88,10.58-8.95,4.63,.08,8.16,3.84,10.58,8.99,.24,.51,.42,1.07,.62,1.57,.54,1.34,1.03,2.76,1.45,4.27,.55-1.75,1.17-3.4,1.88-4.91,2.91-6.2,7.1-10.61,12.5-10.68,4.81,.06,8.68,3.61,11.51,8.78,.34,.61,.67,1.24,.98,1.9,.55,1.17,1.04,2.41,1.5,3.73,.46-1.31,.96-2.56,1.5-3.73,.35-.75,.72-1.47,1.11-2.16,2.82-5.03,6.65-8.46,11.39-8.52,5.39,.07,9.59,4.48,12.49,10.68,.71,1.51,1.33,3.17,1.88,4.92,.46-1.64,.99-3.16,1.58-4.58,.16-.39,.3-.84,.5-1.26,2.41-5.15,5.95-8.91,10.6-8.99,4.63,.08,8.15,3.82,10.56,8.96,.46-1.46,.99-2.84,1.58-4.11,2.41-5.15,5.95-8.92,10.59-8.98,4.51,.06,7.98,3.63,10.39,8.57,.45-1.4,.96-2.73,1.52-3.95,2.42-5.16,5.95-8.92,10.6-8.99,4.64,.07,8.17,3.83,10.58,8.99,.27,.58,.53,1.19,.77,1.82,1.49-2.79,1.81-4.98,1.81-7.4,0-1.95-.22-4.04-.23-6.64,0-2.98,.3-6.62,1.58-11.47-21.41-7.49-35.48-9.84-35.49-9.85-.79-.13-1.4-.77-1.49-1.56,0-.06-.01-.12-.01-.21,0-.71,.43-1.38,1.11-1.66,7.66-3.08,52.22-3.87,56.84-3.88,1.9,0,3.82,.04,5.74,.08,1.81,.03,3.63,.07,5.44,.07,7.56,0,14.97-.64,21.49-4.42,1.07-.62,2.05-1.31,3.02-2.01,3.43-2.53,6.13-5.52,8.17-8.87,2.6-4.28,4.13-9.12,4.82-14.2,.08-1.28,.12-2.56,.12-3.81,0-4.37-.5-8.59-1.36-12.64-2.87-7.33-6.04-14.62-9.28-21.92-10.8-24.32-22.39-48.79-25.98-75.64-.73-5.44-1.14-10.97-1.14-16.63,0-2.31,.07-4.63,.21-6.97,.05-.87,.13-1.73,.2-2.59l.08-.21c1.53-2.05,3.44-3.33,5.52-3.34,.1,0,.2,0,.31,0,4.66,.37,7.73,6.7,7.75,14.38,0,.59-.02,1.18-.05,1.79-.31,4.92-1.83,9.22-3.99,11.98,3.41,13.2,8.4,26.02,15.35,37.52,3.91,6.49,8.88,12.34,13.76,18.26,7.29-15.36,12.21-31.82,14.41-48.94-2.49-11.56-4.86-23.57-7.06-35.92-3.22-18.2-5.86-35.85-7.94-52.61C328.11,26.54,261.36,0,186.67,0h-.36C111.63,0,44.88,26.54,15.21,81.37c-2.07,16.76-4.71,34.42-7.93,52.62-2.2,12.36-4.57,24.36-7.06,35.92,2.2,17.12,7.11,33.58,14.4,48.93,4.89-5.92,9.85-11.78,13.77-18.26ZM320.02,111.29c.77-20.8,6.78-37.02,12.11-47.53,.31-.61,.94-.98,1.61-.98,.09,0,.2,0,.3,.03,.78,.13,1.37,.76,1.47,1.53,.68,5.06,3.01,8.76,6.26,11.35,.44,.36,.67,.88,.67,1.4,0,.35-.1,.69-.29,1.01-11.47,17.14-18.44,33.43-18.68,33.98-.29,.67-.95,1.1-1.66,1.1-.14,0-.26-.02-.39-.04-.82-.18-1.41-.91-1.41-1.75,0,0,0-.03,0-.1Zm-119.11,63.34c3.23-5.9,9.53-13.7,21.69-20.03,2.8-8.36,7.88-14.26,14.6-18.07,2.1-1.19,4.35-2.2,6.79-3.01,3.02-.71,6.35-1.02,9.81-1.02,8.64,0,18.14,1.93,25.73,4.86l.2,.1c.87,.49,1.68,.92,2.47,1.32,6.21,3.2,10.09,4.05,16.01,7.92,.51,.34,.81,.9,.81,1.5,0,.15-.02,.29-.05,.43-.18,.74-.83,1.29-1.58,1.36-.36,.03-.73,.05-1.11,.05-1.03-.01-2.15-.15-3.36-.36-.28-.07-.55-.16-.78-.2-.15-.03-.31-.05-.55-.06-4.24-.94-9.44-2.88-15.89-5.34-3.09-.27-6.16-.45-9.15-.45-5.49,0-10.71,.61-15.21,2.33-6.61,2.51-12.08,8.02-18.57,19.34l-.41,.46c-1.96,1.52-3.97,2.85-6.1,4.07-.37,.11-.76,.26-1.2,.38-7.91,2.13-14.31,4.52-19.39,7.2-1.78,.95-3.41,1.93-4.86,2.94-.06,.04-.12,.1-.2,.15-.57,.41-1.14,.81-1.65,1.22-.07,.06-.13,.13-.25,.23-.08,.06-.18,.09-.27,.09-.08,0-.15-.02-.22-.06-.16-.1-.23-.29-.18-.47,.44-1.57,1.29-4,2.87-6.88Zm-10.4,31.77c.25-4.45,1.43-8.85,3.45-12.89,.09-.17,.28-.26,.47-.22,.19,.04,.31,.21,.32,.4,.06,1.84,.27,3.77,.63,5.72,.37,1.98,.89,3.98,1.56,5.92,.51,1.46,1.13,2.89,1.81,4.26,1.83,3.63,4.26,6.75,7.3,8.78,5.03,4.44,8.26,5.24,12.16,6.23l.95,.25c.7,.3,1.51,.5,2.37,.64,.72,.12,1.47,.19,2.27,.19,3.37,0,7.58-1.12,11.85-3.12,1.27-.6,2.54-1.27,3.81-2.03,.63-.38,1.25-.76,1.87-1.17,.97-.65,1.91-1.37,2.86-2.13,2.78-2.23,5.35-4.81,7.45-7.77,.1-.14,.19-.23,.22-.28,.03-.05,.06-.09,.09-.15,2.77-4.69,5.7-8.8,8.7-12.47,.19-.23,.38-.46,.56-.69,.78-.94,1.56-1.85,2.35-2.73,2.41-2.7,4.85-5.13,7.26-7.37,.02-.02,.05-.04,.08-.08,2.43-2.26,4.83-4.31,7.16-6.22,1.81-1.49,3.58-2.89,5.27-4.23,.39-.31,1.13-.61,2.88-.61,1.71,0,3.84,.27,6.3,.59l1.17,.14c2.98,.38,6.47,.77,10.28,.77,2.58,0,4.96-.21,7.3-.58,.21-.04,.4,.08,.46,.28,.09,.28,.24,.62,.27,1.05,0,.11,0,.21,0,.32,0,2.2-1.58,4.09-3.77,4.48h-.04s-.03,.02-.05,.02c-.05,0-.1,.02-.18,.04-.16,.03-.43,.08-.83,.18-.79,.19-2,.5-3.59,1.01-3.19,1-7.89,2.76-13.77,5.74-1.35,.68-2.77,1.43-4.25,2.25,9.5,1.37,17.47,6.53,22.18,16.86,2.67,5.84,3.97,13.04,3.97,20.37,0,18.77-8.56,38.71-25.33,38.76-1.09,0-2.21-.08-3.36-.26-6.66-1.01-12.74-1.24-18.29-1.24-4.4,0-8.48,.14-12.24,.14-13.52,.05-23.33-1.95-29.74-18.98-1.17-3.08-1.9-6.01-2.29-8.83-.06,0-.13,0-.2,0-7.38-.02-14.96-2.57-20.62-7.1-5.27-4.2-8.88-10.13-8.99-17.34,0-.13,0-.27,0-.36-.14-1.24-.21-2.49-.21-3.74,0-.97,.03-1.94,.12-2.81Zm-5.62,64.92c.31,.23,.49,.39,.59,.49,.09,0,.21,0,.39,.03,.03,0,.09-.02,.15-.02h1.01s.07,.02,.1,.02c.15-.02,.27-.03,.36-.03,.11-.11,.29-.26,.6-.49,0,0,0,0,.09-.1,1.15-1.03,2.09-3.22,3.78-5.73,.9-1.26,1.77-2.2,2.42-3.08,.43-.56,1.49-2.38,3.8-2.98,.65-.19,1.28-.26,1.87-.26h.05c1.53,0,3.04,.53,4.3,1.47,.85,.64,1.63,1.45,2.14,2.56,1.2,2.85,1.48,5.31,2.3,6.61l.36,1.09c1.17,8.98,3.8,20.78,9.47,31.24,.25,.47,.38,.99,.38,1.5,0,.55-.15,1.1-.42,1.59l-.36-.2,.36,.21c-.15,.25-2.41,4.1-7.39,7.38-.11,.07-.22,.16-.38,.26-.51,.32-1.1,.49-1.69,.49-.22,0-.45-.02-.67-.07-2.38-.5-4.83-1.71-6.98-3.85-3.19-3.34-4.37-5.53-6.66-5.88-1.08-.23-1.99-.33-2.79-.33-1.25,0-2.14,.22-3.01,.63-.28,.13-.55,.29-.83,.47-.53,.34-1.13,.52-1.74,.52s-1.21-.17-1.73-.52c-.27-.18-.55-.33-.83-.46-.87-.41-1.76-.61-3.01-.63-.78,0-1.71,.1-2.82,.33-2.25,.35-3.44,2.53-6.64,5.88-2.14,2.13-4.58,3.33-6.97,3.84-.22,.05-.45,.07-.67,.07-.6,0-1.18-.18-1.69-.49-.16-.1-.26-.19-.37-.26-5-3.28-7.26-7.13-7.42-7.38-.28-.49-.43-1.04-.43-1.59,0-.52,.13-1.04,.39-1.51,5.68-10.46,8.3-22.26,9.49-31.32l.38-1.11c.77-1.2,1.05-3.67,2.26-6.52,.5-1.11,1.29-1.93,2.15-2.57,1.26-.93,2.77-1.46,4.29-1.46h.05c.61,0,1.23,.08,1.82,.24,2.36,.62,3.42,2.44,3.86,3.01,.63,.87,1.52,1.81,2.41,3.08,1.69,2.5,2.63,4.69,3.78,5.72,.06,.06,.08,.09,.08,.1Zm-110.12-124.63c5.92-3.86,9.8-4.72,16.01-7.92,.79-.4,1.6-.83,2.5-1.34l.2-.1c7.55-2.91,17.06-4.83,25.7-4.84,3.46,0,6.78,.31,9.98,1.06,2.36,.79,4.58,1.79,6.65,2.97,6.69,3.8,11.78,9.7,14.58,18.07,12.17,6.33,18.47,14.14,21.7,20.04,1.58,2.87,2.44,5.29,2.87,6.86,.05,.17-.02,.36-.18,.46-.07,.04-.15,.07-.23,.07-.09,0-.19-.03-.27-.1-.11-.1-.17-.17-.24-.22-.51-.41-1.07-.81-1.65-1.22-.08-.06-.14-.11-.2-.15-1.46-1.02-3.09-2-4.87-2.94-5.08-2.69-11.47-5.08-19.39-7.2-.43-.12-.83-.27-1.3-.42-2.04-1.18-4.04-2.51-6.07-4.08l-.39-.47c-6.46-11.25-11.92-16.76-18.53-19.27-4.49-1.72-9.72-2.33-15.22-2.33-3,0-6.07,.17-9.13,.44-6.46,2.46-11.68,4.4-16,5.35-.16,0-.31,.02-.45,.05-.22,.04-.49,.13-.8,.21-1.18,.21-2.3,.35-3.34,.36-.39,0-.76-.02-1.11-.05-.76-.07-1.4-.61-1.58-1.35-.03-.14-.05-.29-.05-.44,0-.6,.3-1.17,.82-1.5Zm-13.76,30.19c.03-.43,.17-.77,.27-1.05,.06-.2,.26-.32,.46-.29,2.34,.37,4.72,.58,7.3,.58,3.81,0,7.3-.39,10.28-.77l1.17-.14c2.46-.31,4.58-.59,6.29-.59,1.76,0,2.48,.29,2.83,.56,1.71,1.35,3.49,2.77,5.32,4.28,2.32,1.9,4.71,3.95,7.13,6.19,.04,.04,.08,.08,.12,.11,2.41,2.24,4.84,4.66,7.25,7.36,.79,.88,1.57,1.8,2.35,2.74,.19,.22,.37,.46,.55,.68,3.01,3.67,5.94,7.78,8.71,12.47,.01,.04,.05,.09,.08,.14,.03,.06,.12,.15,.22,.28,2.07,2.94,4.62,5.5,7.37,7.71,.97,.77,1.94,1.52,2.94,2.19,.62,.41,1.24,.79,1.87,1.17,.15,.09,.28,.18,.4,.26,1.13,.66,2.26,1.24,3.39,1.77,4.27,2.01,8.48,3.13,11.85,3.13,.8,0,1.54-.07,2.27-.19,.86-.14,1.66-.35,2.43-.67l.89-.23c3.89-.99,7.12-1.78,12.19-6.27,3-1.99,5.42-5.12,7.25-8.75,.69-1.36,1.3-2.79,1.82-4.25,.68-1.94,1.2-3.94,1.56-5.93,.37-1.94,.57-3.87,.63-5.71,0-.19,.14-.35,.32-.39,.19-.04,.38,.05,.46,.22,2.02,4.02,3.2,8.41,3.45,12.81,.07,.95,.11,1.92,.11,2.89,0,1.25-.06,2.5-.2,3.7v.41c-.11,7.19-3.72,13.11-8.98,17.31-5.65,4.53-13.23,7.09-20.62,7.1-.07,0-.13,0-.19,0-.4,2.82-1.12,5.76-2.29,8.84-6.42,17.03-16.22,19.03-29.74,18.98-3.77,0-7.84-.14-12.25-.14-5.55,0-11.63,.22-18.29,1.24-1.15,.17-2.27,.26-3.36,.26-16.77-.05-25.33-19.99-25.33-38.77,0-7.33,1.3-14.52,3.98-20.36,4.71-10.33,12.67-15.49,22.18-16.86-11.08-6.14-18.88-8.36-21.61-9.01-.79-.19-1.05-.22-1.05-.23-2.2-.37-3.8-2.27-3.8-4.48,0-.11,0-.22,.01-.31ZM31.21,75.69c3.25-2.59,5.59-6.28,6.26-11.35,.1-.78,.7-1.41,1.47-1.53,.1-.02,.2-.03,.31-.03,.66,0,1.29,.37,1.6,.99,5.33,10.51,11.34,26.73,12.11,47.57v.06c0,.84-.59,1.56-1.4,1.75l-.09-.41,.09,.41c-.12,.02-.24,.04-.35,.04h-.04c-.69,0-1.34-.4-1.63-1.05v-.02l-.02-.02s-.02-.02-.02-.04c-.01-.04-.03-.08-.07-.14-.05-.13-.14-.32-.24-.56-.22-.49-.55-1.2-.97-2.12-.84-1.82-2.09-4.44-3.69-7.6-3.21-6.32-7.87-14.81-13.69-23.52-.2-.3-.31-.65-.31-1.01,0-.53,.23-1.05,.68-1.4ZM182.94,384.99c0-4.43-.46-8.61-1.25-12.27-.69-3.22-1.66-6.03-2.81-8.26-1.84-3.58-4.13-5.61-6.44-5.59-2.35-.02-4.67,2.06-6.52,5.74-1.43,2.82-2.55,6.54-3.24,10.81-.48,2.97-.75,6.19-.75,9.57,0,.59,.01,1.14,.03,1.69,6.74,.45,13.73,.71,20.92,.78,.04-.79,.06-1.6,.06-2.47Zm-53.37,3.2c-5.6-1.25-10.71-2.53-15.28-3.71-.1,.9-.16,1.93-.18,3.1,0,.31-.02,.59-.02,.9,0,2.49,.18,4.96,.49,7.35,1.12,8.79,4.34,16.28,7.79,17.82,.49,.22,.95,.32,1.39,.32,3.16,.13,6.21-5.85,6.66-14.77,.05-.89,.08-1.78,.08-2.72,0-1.73-.1-3.24-.26-4.63-.16-1.37-.39-2.59-.69-3.66Zm31.72,6.76c-.05,14.16,5.13,26.46,10.84,26.85,.14,.01,.28,.01,.42,.01,2.71,.03,5.35-2.62,7.28-7.12,1.93-4.49,3.13-10.74,3.13-17.62,0-.85-.02-1.64-.06-2.4-7.44-.11-14.68-.57-21.58-1.28-.02,.5-.03,1.02-.03,1.56Zm-53.01-12.02c-3.02-.77-5.72-1.43-8.13-1.94-2.44-.51-4.58-.86-6.36-.97,0,.05,0,.1,0,.15,0,4.23,.45,8.52,1.25,12.41,.97,4.83,2.47,9.05,4.23,11.72,.2,.32,.42,.61,.62,.87,.07,.09,.11,.15,.12,.15,.5,.62,1.01,1.11,1.52,1.45,.62,.42,1.19,.59,1.72,.59,2.59,.14,5.2-4.94,5.7-12.88-.25-2.31-.39-4.64-.39-6.98,0-.99,.02-1.9,.07-2.68-.1-.67-.23-1.31-.36-1.91Zm-67.83,10.25c-.26,.65-.51,1.28-.79,1.88-2.98,6.38-5.08,12.97-5.08,20.03,0,.33,0,.67,.01,1.02,.41,15.98,17.58,20.88,30.5,25.82,7.07,2.72,13.86,8.38,20.46,11.91,7.39,3.97,14.9,7.7,22.45,11.36,7.6,3.72,15.31,7.89,23.01,12.83,6.65,4.49,11.13,10.33,17.01,15.15,4.01,3.08,8.25,5.33,12.94,6.37,1.98,.3,4.01,.43,6.05,.43,6.42,0,13.08-1.25,19.42-2.24h.13c6.34,.99,13,2.24,19.41,2.24,2.05,0,4.08-.13,6.03-.42,4.71-1.06,8.96-3.3,12.96-6.37,5.89-4.84,10.37-10.68,17.02-15.17,7.7-4.94,15.41-9.11,23.01-12.83,7.55-3.66,15.06-7.39,22.44-11.36,6.6-3.53,13.39-9.19,20.46-11.91,12.92-4.94,30.08-9.84,30.5-25.82,0-.34,0-.68,0-1.02,0-7.06-2.11-13.65-5.08-20.04-.27-.58-.52-1.21-.77-1.84-1.67-2.97-3.48-6.47-5.18-10.2-8.66-16.4-10.39-38.06-10.39-52.74,0-.62,0-1.23,0-1.82-1.6,.08-3.25,.13-4.94,.13-3.59,0-7.01-.2-10.18-.56,2.42,23.27,3.61,63.12,3.61,63.17-.35,5.74-1.25,9.12-1.56,11.56,.03,.3,.06,.61,.05,.93,0,1.61-.49,3.52-1.73,6.02l-.1,.13c-4.69,4.07-9.27,7.26-13.02,9.33-3.67,8.7-7.6,14.8-7.74,15.03-1.01,1.3-3.22,4.13-3.22,4.13-.53,.68-1.31,1.05-2.12,1.04-.47,0-.95-.13-1.38-.39-.84-.5-1.31-1.38-1.31-2.3,0-.37,.07-.75,.24-1.1,1.89-4.22,3.62-9.42,5.07-14.4,0-.02,0-.06,.02-.17,.51-1.97,1.04-3.8,1.54-5.54,1.06-4.05,1.89-7.7,2.46-10.31,.11-.83,.16-1.63,.16-2.41,0-1.88-.32-3.6-1.09-5.22-.18,.73-.37,1.45-.59,2.16-2.08,6.6-5.06,12.42-9.13,15.23-1.37,.91-2.68,1.33-3.92,1.33-2.46,0-4.47-1.68-5.97-4.18-.48-.83-.93-1.77-1.33-2.81-2.25,6.06-5.44,11.18-9.73,13.23-1.1,.5-2.16,.73-3.17,.73-3.04,0-5.49-2.13-7.26-5.22-.57-.98-1.06-2.09-1.51-3.28,0,.02-.01,.04-.02,.06-2.38,5.85-5.81,10.64-10.43,12.04-.74,.2-1.47,.29-2.17,.29-3.67,0-6.56-2.66-8.62-6.44-.83-1.51-1.53-3.26-2.11-5.17-.57,1.83-1.22,3.57-1.95,5.19-2.97,6.54-7.24,11.48-12.78,12.08-.28,.02-.57,.03-.84,.03-5.17-.01-9.25-4.05-12.09-9.73-.58-1.16-1.1-2.41-1.58-3.7-.48,1.29-.99,2.54-1.57,3.7-2.85,5.69-6.93,9.73-12.09,9.74-.27,0-.55-.01-.84-.03-5.53-.6-9.81-5.54-12.79-12.08-.73-1.62-1.37-3.37-1.94-5.19-.58,1.92-1.29,3.66-2.11,5.18-2.07,3.79-4.97,6.44-8.64,6.45-.7,0-1.42-.1-2.16-.3-4.6-1.38-8.04-6.16-10.43-12.02,0-.02-.01-.03-.02-.05-.44,1.19-.94,2.3-1.5,3.28-1.79,3.1-4.23,5.22-7.27,5.22-1.02,0-2.07-.23-3.18-.73-4.28-2.04-7.48-7.17-9.72-13.22-.39,1.04-.84,1.98-1.34,2.81-1.5,2.51-3.51,4.19-5.97,4.19-1.24,0-2.55-.43-3.93-1.33-4.07-2.79-7.05-8.62-9.13-15.22-.24-.77-.45-1.57-.65-2.37-.81,1.66-1.15,3.41-1.16,5.34,0,.78,.05,1.59,.15,2.4,.48,2.18,1.11,5.01,1.92,8.21,.16,.62,.33,1.27,.49,1.9,.52,1.81,1.06,3.71,1.6,5.8,0,.04,0,.07,0,.08,1.47,5.07,3.2,10.27,5.07,14.45,.16,.35,.23,.73,.23,1.1,0,.91-.47,1.8-1.3,2.3-.43,.26-.91,.39-1.39,.39-.8,0-1.59-.36-2.12-1.03,0,0-2.2-2.83-3.37-4.37-.01-.02-3.94-6.13-7.59-14.8-3.74-2.07-8.32-5.26-13-9.33l-.1-.13c-1.25-2.49-1.74-4.4-1.74-6.02,0-.31,.02-.6,.05-.88-.32-2.53-1.2-5.91-1.55-11.65,0,0,1.19-39.86,3.61-63.13-3.17,.36-6.59,.56-10.17,.56-1.69,0-3.33-.05-4.94-.13,0,.59,0,1.2,0,1.82,0,14.69-1.72,36.39-10.4,52.78-1.71,3.74-3.51,7.21-5.15,10.12Zm90.72-21.12c-.06-.95-.14-1.87-.24-2.78-.21-1.93-.53-3.75-.94-5.42-1.53-6.38-4.43-10.49-7.33-10.42-2.67-.05-5.36,3.47-6.96,9.09-.41,1.42-.75,2.96-1.01,4.6-.04,.21-.07,.37-.1,.53-.33,2.26-.52,4.7-.52,7.25,0,.31,.01,.6,.02,.92,.03,1.31,.1,2.49,.23,3.54,4.89,1.31,10.25,2.5,16.02,3.53,.27-.94,.49-2.04,.65-3.31,.04-.33,.06-.72,.1-1.1l.42,.03-.42-.04c.1-1.09,.17-2.25,.17-3.57,0-.97-.03-1.92-.08-2.86Zm-22.59-6.13c-.11-1.53-.3-2.99-.54-4.39-1.32-7.86-4.59-13.2-7.89-13.11-2.4-.04-4.81,2.74-6.44,7.36-.52,1.47-.96,3.12-1.3,4.91-.54,2.79-.85,5.9-.85,9.2,0,.13,0,.25,0,.38,4.11,2.64,9.66,5.06,16.37,7.22,.12-.47,.24-.96,.34-1.43-.06-.92-.09-1.87-.09-2.9,0-2.41,.16-4.74,.43-6.89,0-.11-.02-.22-.03-.34l.42-.04-.42,.03Zm45.4,13.74c0-1.13-.04-2.25-.11-3.33-.19-3.04-.64-5.86-1.29-8.33-.33-1.23-.69-2.37-1.11-3.41-1.61-4.06-3.85-6.43-6.08-6.4-2.17-.03-4.36,2.24-5.96,6.14-.62,1.49-1.14,3.19-1.56,5.07-.33,1.49-.6,3.09-.77,4.73-.03,1.45-.11,2.78-.24,4.03-.02,.16-.03,.35-.04,.49-.01,.35-.02,.68-.02,1.02,0,1.64,.08,3.07,.22,4.35,5.23,.79,10.71,1.45,16.43,1.99,.33-1.7,.52-3.78,.52-6.33Zm104.2-12.51c-.26-1.65-.61-3.19-1.02-4.61-1.59-5.63-4.29-9.16-6.96-9.11-2.89-.06-5.79,4.04-7.33,10.43-.41,1.67-.72,3.49-.93,5.41-.1,.91-.19,1.84-.24,2.79-.05,.93-.08,1.88-.08,2.84,0,1.32,.07,2.48,.17,3.57,.03,.37,.06,.76,.1,1.09,.15,1.28,.38,2.39,.65,3.33,5.77-1.03,11.12-2.21,16.02-3.53,.13-1.05,.21-2.22,.22-3.52,.01-.32,.03-.62,.03-.94,0-2.56-.2-5-.53-7.28-.02-.14-.06-.28-.08-.47Zm6.75,10.34c6.7-2.16,12.25-4.58,16.36-7.22,0-.13,0-.25,0-.38,0-3.28-.31-6.38-.84-9.16-.34-1.76-.77-3.39-1.27-4.84-1.63-4.69-4.06-7.5-6.48-7.47h-.09c-3.26,0-6.5,5.34-7.8,13.13-.24,1.4-.42,2.87-.53,4.4-.01,.13-.03,.24-.04,.26,.27,2.23,.42,4.55,.42,6.96,0,1.01-.03,1.97-.08,2.79,.1,.55,.22,1.06,.34,1.53Zm-22.05,14.27c-.17,1.4-.27,2.93-.27,4.66,0,.95,.03,1.84,.08,2.74,.46,8.91,3.5,14.88,6.65,14.76,.44,0,.9-.1,1.4-.33,3.46-1.54,6.68-9.05,7.8-17.86,.31-2.38,.49-4.84,.49-7.31,0-.3-.01-.57-.02-.89-.02-1.16-.08-2.19-.18-3.1-4.57,1.18-9.68,2.47-15.28,3.72-.29,1.06-.52,2.27-.67,3.62Zm26.97,15.55c.53,0,1.1-.18,1.72-.6h0c2.63-1.73,5.09-7.28,6.47-14.06,.53-2.6,.92-5.37,1.12-8.19,.11-1.45,.16-2.92,.16-4.38,0-.05,0-.1,0-.15-1.8,.11-3.98,.47-6.47,1-2.38,.5-5.04,1.16-8.01,1.92-.14,.6-.27,1.22-.36,1.81,.04,.86,.06,1.78,.07,2.77,0,2.35-.15,4.69-.39,6.92,.5,8.01,3.1,13.07,5.69,12.94Zm-58.02-12.52c0-.49-.01-.95-.03-1.41-6.9,.71-14.14,1.18-21.58,1.3-.03,.76-.06,1.55-.06,2.4,0,1.77,.08,3.49,.23,5.16,.98,11.34,5.43,19.7,10.18,19.58,.14,0,.29-.01,.43-.02,5.72-.4,10.9-12.7,10.84-26.85h0s0-.04,0-.07v-.08Zm-4.88-30.19c-1.85-3.68-4.17-5.75-6.52-5.74-2.31-.02-4.6,2-6.44,5.59-1.15,2.23-2.12,5.03-2.81,8.25-.8,3.66-1.25,7.84-1.25,12.29,0,.87,.02,1.68,.05,2.47,7.19-.07,14.19-.33,20.92-.78,.02-.55,.03-1.1,.03-1.69,0-3.39-.27-6.62-.75-9.59-.69-4.26-1.81-7.98-3.23-10.79Zm12.96,34.1c0,5.39,.88,10.13,2.29,13.47,1.42,3.36,3.35,5.24,5.31,5.22,.31,0,.63-.05,.96-.14,3.83-1.01,7.42-8.86,8.36-18.24,.03-1.61,.12-3.13,.27-4.48,0-.35,.03-.68,.03-.99,0-1.53-.08-2.84-.21-4-5.16,1.03-10.67,2-16.47,2.8-.35,1.75-.55,3.84-.55,6.37Zm16.08-20.55c-.13-1.26-.22-2.61-.24-4.04-.18-1.66-.44-3.23-.76-4.71-.42-1.88-.95-3.58-1.56-5.06-1.6-3.9-3.8-6.18-5.97-6.15-2.22-.03-4.46,2.34-6.08,6.4-.41,1.03-.77,2.17-1.1,3.39-.65,2.47-1.1,5.29-1.29,8.33-.08,1.09-.12,2.21-.12,3.35,0,2.56,.2,4.63,.53,6.33,5.72-.54,11.21-1.2,16.42-1.99,.15-1.28,.23-2.71,.23-4.35,0-.33-.01-.65-.02-.96-.03-.19-.03-.39-.05-.56Z" />
</svg>